<mxfile host="app.diagrams.net" modified="2021-12-09T07:34:49.244Z" agent="5.0 (Windows NT 10.0; Win64; x64) AppleWebKit/537.36 (KHTML, like Gecko) Chrome/96.0.4664.45 Safari/537.36" etag="ZLDvY5hK5C4SMHuF5Lyw" version="15.7.3" type="github">
  <diagram id="q6U_2oeTVZRiRgC-m4ye" name="第 1 页">
    <mxGraphModel dx="1185" dy="635" grid="1" gridSize="10" guides="1" tooltips="1" connect="1" arrows="1" fold="1" page="1" pageScale="1" pageWidth="827" pageHeight="1169" math="0" shadow="0">
      <root>
        <mxCell id="0" />
        <mxCell id="1" parent="0" />
        <mxCell id="Ci2zXu0WS2SNQeyCEPLp-16" value="Pad" style="verticalLabelPosition=bottom;html=1;verticalAlign=top;align=center;shape=mxgraph.floorplan.dresser;" vertex="1" parent="1">
          <mxGeometry x="290" y="120" width="410" height="280" as="geometry" />
        </mxCell>
        <mxCell id="Ci2zXu0WS2SNQeyCEPLp-25" value="webview" style="rounded=0;whiteSpace=wrap;html=1;" vertex="1" parent="1">
          <mxGeometry x="312.5" y="100" width="225" height="60" as="geometry" />
        </mxCell>
        <mxCell id="Ci2zXu0WS2SNQeyCEPLp-29" value="service" style="shape=mxgraph.pid.driers.drier_(fluidized_bed);html=1;pointerEvents=1;align=center;verticalLabelPosition=bottom;verticalAlign=top;dashed=0;" vertex="1" parent="1">
          <mxGeometry x="110" y="200" width="100" height="140" as="geometry" />
        </mxCell>
        <mxCell id="Ci2zXu0WS2SNQeyCEPLp-24" value="" style="endArrow=classic;startArrow=classic;html=1;rounded=0;exitX=1;exitY=0.446;exitDx=0;exitDy=0;exitPerimeter=0;entryX=0;entryY=0.75;entryDx=0;entryDy=0;" edge="1" parent="1" source="Ci2zXu0WS2SNQeyCEPLp-29" target="Ci2zXu0WS2SNQeyCEPLp-25">
          <mxGeometry width="50" height="50" relative="1" as="geometry">
            <mxPoint x="160" y="200" as="sourcePoint" />
            <mxPoint x="250" y="180" as="targetPoint" />
          </mxGeometry>
        </mxCell>
        <mxCell id="Ci2zXu0WS2SNQeyCEPLp-41" value="socket" style="edgeLabel;html=1;align=center;verticalAlign=middle;resizable=0;points=[];" vertex="1" connectable="0" parent="Ci2zXu0WS2SNQeyCEPLp-24">
          <mxGeometry x="-0.2117" y="1" relative="1" as="geometry">
            <mxPoint as="offset" />
          </mxGeometry>
        </mxCell>
        <mxCell id="Ci2zXu0WS2SNQeyCEPLp-42" value="" style="endArrow=classic;startArrow=classic;html=1;rounded=0;entryX=0.5;entryY=1;entryDx=0;entryDy=0;exitX=0.333;exitY=0.849;exitDx=0;exitDy=0;exitPerimeter=0;" edge="1" parent="1" source="Ci2zXu0WS2SNQeyCEPLp-16" target="Ci2zXu0WS2SNQeyCEPLp-25">
          <mxGeometry width="50" height="50" relative="1" as="geometry">
            <mxPoint x="425" y="350" as="sourcePoint" />
            <mxPoint x="500" y="240" as="targetPoint" />
          </mxGeometry>
        </mxCell>
        <mxCell id="Ci2zXu0WS2SNQeyCEPLp-43" value="jsBridge" style="edgeLabel;html=1;align=center;verticalAlign=middle;resizable=0;points=[];" vertex="1" connectable="0" parent="Ci2zXu0WS2SNQeyCEPLp-42">
          <mxGeometry x="-0.0602" relative="1" as="geometry">
            <mxPoint as="offset" />
          </mxGeometry>
        </mxCell>
        <mxCell id="Ci2zXu0WS2SNQeyCEPLp-44" value="" style="endArrow=classic;html=1;rounded=0;exitX=0.005;exitY=0.098;exitDx=0;exitDy=0;exitPerimeter=0;" edge="1" parent="1" source="Ci2zXu0WS2SNQeyCEPLp-25" target="Ci2zXu0WS2SNQeyCEPLp-29">
          <mxGeometry width="50" height="50" relative="1" as="geometry">
            <mxPoint x="310" y="100" as="sourcePoint" />
            <mxPoint x="390" y="230" as="targetPoint" />
          </mxGeometry>
        </mxCell>
        <mxCell id="Ci2zXu0WS2SNQeyCEPLp-45" value="https" style="edgeLabel;html=1;align=center;verticalAlign=middle;resizable=0;points=[];" vertex="1" connectable="0" parent="Ci2zXu0WS2SNQeyCEPLp-44">
          <mxGeometry x="0.1627" y="-1" relative="1" as="geometry">
            <mxPoint as="offset" />
          </mxGeometry>
        </mxCell>
      </root>
    </mxGraphModel>
  </diagram>
</mxfile>
